# xmcd
#
# Track frame offsets: 
#        150
#        26287
#        41046
#        73825
#        92188
#        114208
#        136976
#        156320
#        183462
#        210538
#        230067
#        256921
#        277150
#        294326
#
# Disc length: 4375 seconds
#
# Revision: 2
# Processed by: cddbd v1.5.2PL0 Copyright (c) Steve Scherf et al.
# Submitted via: ExactAudioCopy v0.99pb4
#
DISCID=ce11150e
DTITLE=Various Artist - Jazz You Night and Day (Day)
DYEAR=2008
DGENRE=Jazz
TTITLE0=Larry Carlton - Smiles And Smiles
TTITLE1=Joanna Wang - Lost In Paradise
TTITLE2=Grover Washington Jr. and Bill Withers - Just The Two Of Us
TTITLE3=Marion Meadows - My Cherie Amour
TTITLE4=Kenny G - Slip Of The Tongue
TTITLE5=Basia - Third Time Lucky
TTITLE6=Grover Washington Jr. and Bill Withers - Soulful Strut
TTITLE7=Warren Hill - Tell Me All Your Secrets
TTITLE8=Peter White - Caravan Of Dreams
TTITLE9=Lee Ritenour - You Make Me Feel Like Dancing
TTITLE10=Bob James - Ashanti
TTITLE11=David Sanborn - Breaking Point
TTITLE12=Candy Dulfer - Pee Wee
TTITLE13=Regina Belle - So Many Tears
EXTD=YEAR: 2008
EXTT0=
EXTT1=
EXTT2=
EXTT3=
EXTT4=
EXTT5=
EXTT6=
EXTT7=
EXTT8=
EXTT9=
EXTT10=
EXTT11=
EXTT12=
EXTT13=
PLAYORDER=
